<svg width="32" height="32" viewBox="0 0 32 32" fill="none" xmlns="http://www.w3.org/2000/svg">
<path fill-rule="evenodd" clip-rule="evenodd" d="M15.999 0.533203C24.5413 0.533446 31.4668 7.45859 31.4668 16.001C31.4666 22.8323 27.0386 28.6249 20.8975 30.6748C20.1137 30.8255 19.8351 30.3445 19.835 29.9307C19.835 29.4237 19.8535 27.7554 19.8535 25.6885C19.8535 24.2453 19.3592 23.3009 18.8047 22.8232C22.2493 22.4405 25.8652 21.1331 25.8652 15.1914C25.8652 13.5023 25.2676 12.1224 24.2764 11.041C24.4351 10.6492 24.9649 9.07729 24.1211 6.94824C24.0996 6.94155 22.8003 6.54934 19.8721 8.5332C18.6369 8.19049 17.314 8.01934 16 8.0127C14.6852 8.01938 13.3621 8.19054 12.1289 8.5332C9.19478 6.54663 7.89403 6.9426 7.87598 6.94824C7.03406 9.07726 7.56394 10.6492 7.72363 11.041C6.7343 12.1224 6.13188 13.5023 6.13184 15.1914C6.13184 21.1181 9.74246 22.4447 13.1768 22.8359C12.7352 23.2224 12.3358 23.9045 12.1953 24.9033C11.3142 25.2993 9.07296 25.9814 7.69336 23.6182C7.68554 23.604 6.86916 22.1331 5.32422 22.0244C5.30305 22.0242 3.82404 22.0119 5.21777 22.9639C5.21777 22.9639 6.23198 23.4398 6.93555 25.2266C6.93555 25.2266 7.8435 28.235 12.1455 27.3008C12.1531 28.5909 12.166 29.5633 12.166 29.9307C12.1659 30.3408 11.8841 30.8182 11.1104 30.6768C4.96458 28.6306 0.533394 22.8332 0.533203 16.001C0.533203 7.45844 7.45934 0.533203 15.999 0.533203Z" fill="black"/>
</svg>
