<svg width="32" height="32" viewBox="0 0 32 32" fill="none" xmlns="http://www.w3.org/2000/svg">
<path d="M28.8667 2.13334C29.419 2.13337 29.8667 2.58107 29.8667 3.13334V28.8667C29.8667 29.419 29.4189 29.8667 28.8667 29.8667H3.1333C2.58104 29.8667 2.13334 29.419 2.1333 28.8667V3.13334C2.1333 2.58105 2.58102 2.13334 3.1333 2.13334H28.8667ZM20.6392 12.481C19.8296 12.4411 19.0234 12.6108 18.3013 12.9732C17.753 13.2484 17.1785 13.8782 16.7358 14.9732H16.6226V12.8013H12.8003V25.6099H16.8667V18.7974C16.8079 18.0996 17.0309 17.1973 17.4878 16.6607C17.9445 16.1244 18.5979 15.9963 19.0933 15.9312H19.2485C20.5415 15.9313 21.5005 16.7323 21.5005 18.7495V25.6099H25.5679L25.6001 17.8286C25.6001 13.978 23.1115 12.4811 20.6392 12.481ZM6.50635 25.6001H10.5601V12.8003H6.50635V25.6001ZM8.53369 6.25052C7.26712 6.25052 6.23975 7.27789 6.23975 8.54447C6.24 9.81083 7.26727 10.8374 8.53369 10.8374C9.79993 10.8372 10.8264 9.8107 10.8267 8.54447C10.8267 7.27802 9.80009 6.25073 8.53369 6.25052Z" fill="black"/>
</svg>
