<svg width="32" height="32" viewBox="0 0 32 32" fill="none" xmlns="http://www.w3.org/2000/svg">
<path fill-rule="evenodd" clip-rule="evenodd" d="M22.1015 3.9133C25.8449 3.9135 28.2236 7.32212 28.2236 10.6692C28.2232 18.2894 22.4209 27.1125 11.7783 27.1125C8.5157 27.1124 5.47784 26.157 2.91988 24.5158C2.69374 24.3707 2.62404 24.074 2.75777 23.844C2.75795 23.8423 2.75856 23.8407 2.75875 23.8391C2.78794 23.5924 3.012 23.4165 3.25875 23.4455C5.71216 23.7345 8.18908 23.3127 10.2509 22.0754C8.15538 21.6024 6.4714 20.042 5.8232 18.0207C5.77482 17.8698 5.81018 17.704 5.915 17.5852C6.02012 17.4663 6.18003 17.4111 6.3359 17.4406C6.49497 17.4709 6.65703 17.4938 6.82125 17.509C5.0359 16.4559 3.83802 14.5136 3.83785 12.2912V12.219C3.83798 12.0597 3.92232 11.9121 4.05953 11.8313C4.1969 11.7505 4.36653 11.749 4.50582 11.8264C4.77124 11.9739 5.05192 12.0979 5.34371 12.1975C4.43518 11.1378 3.88386 9.76004 3.88375 8.2551C3.88375 7.24292 3.89968 6.12803 4.51558 5.13498C4.62554 4.95793 4.8379 4.88464 5.02828 4.9426C5.19358 4.92164 5.36533 4.98363 5.47847 5.12228C8.03239 8.25405 11.7862 10.3617 16.041 10.7483C16.0126 10.5092 15.998 10.2655 15.998 10.0188C15.9982 6.64656 18.7314 3.9134 22.1015 3.9133ZM22.1015 4.9133C19.284 4.9134 16.9982 7.19856 16.998 10.0188C16.998 10.4178 17.0441 10.8068 17.1298 11.1828C17.1645 11.3353 17.1258 11.4957 17.0253 11.6154C16.9247 11.7351 16.7733 11.801 16.6171 11.7932C11.9889 11.5601 7.87017 9.41583 5.02633 6.13596C4.8032 6.75587 4.78317 7.45333 4.78316 8.2551C4.78332 10.0427 5.69369 11.6219 7.07613 12.5461C7.243 12.6578 7.31532 12.8676 7.25387 13.0588C7.19213 13.2494 7.01181 13.3767 6.81148 13.3703C6.09603 13.3469 5.41159 13.1971 4.77926 12.9465C5.0584 15.1455 6.72323 16.9145 8.87203 17.3459C9.07643 17.3872 9.22544 17.5632 9.23238 17.7717C9.23904 17.9802 9.10178 18.1664 8.90035 18.2209C8.39072 18.3587 7.8564 18.4319 7.3066 18.4319C7.18761 18.4318 7.06945 18.4269 6.95211 18.4201C7.77483 20.1121 9.49671 21.2881 11.4951 21.3235C11.6855 21.3268 11.8534 21.4496 11.914 21.6301C11.9743 21.8106 11.9144 22.0098 11.7646 22.1272C9.75469 23.7022 7.28221 24.4215 4.77926 24.4299C6.88086 25.5035 9.25722 26.1124 11.7783 26.1125C21.7538 26.1125 27.2232 17.8594 27.2236 10.6692C27.2236 7.70376 25.1362 4.9135 22.1015 4.9133ZM30.6162 4.51193C30.1975 5.82076 29.3096 6.92059 28.1523 7.61349C29.2866 7.47757 30.3657 7.17668 31.3701 6.73166L31.3681 6.73557C30.6187 7.85785 29.6678 8.8425 28.5732 9.634L27.0576 5.87131C28.3339 5.62109 29.5335 5.15431 30.6162 4.51193Z" fill="black"/>
</svg>
